<svg width="208" height="113" viewBox="0 0 208 113" fill="none" xmlns="http://www.w3.org/2000/svg">
<path fill-rule="evenodd" clip-rule="evenodd" d="M31.6245 111.997L33.3948 112.008C32.9728 112.3 32.1968 112.195 31.6245 112.195V112.003V111.997ZM31.1395 111.804C31.2947 111.618 31.6536 112.049 31.3287 111.909C31.3238 111.909 30.9213 112.067 31.1395 111.804ZM26.7648 110.441C26.7793 110.423 26.8133 110.47 26.8133 110.499C26.8133 110.511 26.8327 110.522 26.8327 110.522C26.8278 110.517 26.5465 110.703 26.7648 110.441ZM26.2798 110.248C26.2943 110.231 26.3283 110.278 26.3283 110.307C26.3283 110.318 26.3477 110.33 26.3477 110.33C26.3428 110.324 26.0615 110.511 26.2798 110.248ZM25.7948 110.056C25.95 109.87 26.3089 110.301 25.9839 110.161C25.9791 110.161 25.5765 110.318 25.7948 110.056ZM30.8194 109.864C30.834 109.846 30.8679 109.893 30.8679 109.922C30.8679 109.934 30.8873 109.945 30.8873 109.945C30.8825 109.94 30.6011 110.126 30.8194 109.864ZM25.3098 109.864L25.6347 109.957L25.3098 109.864ZM29.9949 109.817L29.5244 109.876C29.6117 109.8 29.4614 109.462 29.9949 109.817ZM28.8745 109.479C29.0297 109.293 29.3838 109.724 29.0637 109.584C29.0588 109.584 28.6563 109.741 28.8745 109.479ZM38.2739 109.287C38.4291 109.1 38.7831 109.532 38.463 109.392C38.4582 109.392 38.0556 109.549 38.2739 109.287ZM28.0646 109.287C28.2198 109.1 28.5738 109.532 28.2537 109.392C28.2489 109.392 27.8415 109.549 28.0646 109.287ZM38.9189 109.095C38.9335 109.077 38.9674 109.124 38.9674 109.153C38.9674 109.165 38.9868 109.176 38.9868 109.176C38.982 109.17 38.7007 109.357 38.9189 109.095ZM39.5688 108.902C39.5834 108.885 39.6174 108.931 39.6174 108.961C39.6174 108.972 39.6367 108.984 39.6367 108.984C39.6319 108.978 39.3506 109.165 39.5688 108.902ZM26.9297 108.902C27.0849 108.716 27.4438 109.147 27.1188 109.007C27.114 109.007 26.7114 109.165 26.9297 108.902ZM38.594 108.902C38.885 108.681 38.6813 108.529 39.2293 108.85L38.594 108.902ZM39.4039 108.512C39.4185 108.494 39.4525 108.541 39.4525 108.57C39.4525 108.582 39.4718 108.593 39.4718 108.593C39.467 108.588 39.1857 108.774 39.4039 108.512ZM26.1197 108.512C26.1343 108.494 26.1682 108.541 26.1682 108.57C26.1682 108.582 26.1876 108.593 26.1876 108.593C26.1828 108.588 25.9015 108.774 26.1197 108.512ZM37.784 108.512C38.075 108.29 37.8713 108.139 38.4194 108.459L37.784 108.512ZM25.6347 108.32L25.9597 108.413L25.6347 108.32ZM38.5988 108.127C38.6134 108.11 38.6473 108.156 38.6473 108.186C38.6473 108.197 38.6667 108.209 38.6667 108.209C38.6619 108.203 38.3806 108.389 38.5988 108.127ZM30.4847 108.18L30.0143 108.349C30.2422 108.11 29.7087 108.139 30.4847 108.18ZM25.6396 108.325L25.3146 108.133L25.6396 108.325ZM29.3644 107.935C29.3789 107.917 29.4129 107.964 29.4129 107.993C29.4129 108.005 29.4323 108.017 29.4323 108.017C29.4274 108.011 29.1461 108.197 29.3644 107.935ZM25.3146 108.127L24.9897 107.935L25.3146 108.127ZM28.8794 107.737C28.8939 107.719 28.9279 107.766 28.9279 107.795C28.9279 107.807 28.9473 107.818 28.9473 107.818C28.9424 107.813 28.6611 107.999 28.8794 107.737ZM28.2295 107.544C28.244 107.527 28.278 107.574 28.278 107.603C28.278 107.614 28.2974 107.626 28.2974 107.626C28.2925 107.62 28.0112 107.807 28.2295 107.544ZM40.7038 106.764C40.7183 106.746 40.7523 106.793 40.7523 106.822C40.7523 106.834 40.7717 106.845 40.7717 106.845C40.7668 106.839 40.4855 107.026 40.7038 106.764ZM41.0287 106.571C41.0433 106.554 41.0772 106.6 41.0772 106.63C41.0772 106.641 41.0966 106.653 41.0966 106.653C41.0918 106.647 40.8105 106.834 41.0287 106.571ZM41.3537 106.379C41.3682 106.361 41.4022 106.408 41.4022 106.437C41.4022 106.449 41.4216 106.461 41.4216 106.461C41.4167 106.455 41.1354 106.641 41.3537 106.379ZM42.0036 106.187L41.7126 106.391L42.0036 106.187ZM42.3285 105.994L42.0036 106.187L42.3285 105.994ZM42.3285 105.994L42.3722 105.814L42.4934 105.924L42.3334 105.988L42.3285 105.994ZM42.8135 105.604L42.7699 105.785L42.6486 105.674L42.8087 105.61L42.8135 105.604ZM43.1385 105.412L42.8135 105.604L43.1385 105.412ZM43.4634 105.219L43.1385 105.412L43.4634 105.219ZM43.6235 105.027L43.4634 105.219L43.6235 105.027ZM43.6235 105.027C43.8757 104.596 44.1909 104.38 44.5935 104.246C44.2685 104.84 44.1909 104.858 43.6235 105.027ZM25.3146 109.899C23.3795 109.695 19.0144 105.662 18.025 103.861C18.4955 104.013 20.7168 106.542 21.4588 107.137C22.099 107.649 22.6811 108.081 23.3407 108.576C23.9615 109.042 24.8151 109.369 25.3195 109.899H25.3146ZM44.5935 104.252C44.899 103.687 44.7632 103.821 45.2434 103.669C44.9378 104.234 45.0736 104.1 44.5935 104.252ZM18.0202 103.861L17.8601 103.669L18.0202 103.861ZM17.8601 103.669L17.7001 103.477L17.8601 103.669ZM17.7001 103.477L17.54 103.284L17.7001 103.477ZM45.2434 103.669L45.8933 102.888C45.7866 103.512 45.7187 103.518 45.2434 103.669ZM37.3039 103.086L37.2651 103.267L37.1438 103.156L37.3039 103.092V103.086ZM17.5352 103.279L17.3848 103.226L17.477 103.081L17.5303 103.273L17.5352 103.279ZM37.3039 103.086L37.5949 102.882L37.3039 103.086ZM45.8933 102.894L45.9369 102.713L46.0582 102.824L45.8981 102.888L45.8933 102.894ZM48.9731 98.6107C48.9876 98.5932 49.0216 98.6398 49.0216 98.669C49.0216 98.6806 49.041 98.6923 49.041 98.6923C49.0361 98.6865 48.7548 98.8729 48.9731 98.6107ZM49.4581 98.0279L49.4193 98.2086L49.298 98.0979L49.4581 98.0338V98.0279ZM49.6181 97.6375L49.4581 98.0279L49.6181 97.6375ZM49.6181 97.6375L49.9431 97.0547L49.6181 97.6375ZM50.1031 96.6643L49.9431 97.0547L50.1031 96.6643ZM14.1353 96.6643C14.1499 96.6468 14.1838 96.6934 14.1838 96.7226C14.1838 96.7342 14.2032 96.7459 14.2032 96.7459C14.1984 96.74 13.9171 96.9265 14.1353 96.6643ZM50.268 96.2738L50.108 96.6643L50.268 96.2738ZM50.4281 95.8834L50.268 96.2738L50.4281 95.8834ZM50.4281 95.8834L50.5057 95.4929L50.4281 95.8834ZM50.753 94.9102L50.6754 95.3006L50.753 94.9102ZM50.753 94.9102L50.8306 94.5197L50.753 94.9102ZM50.9131 94.1293C50.9276 94.1118 50.9616 94.1584 50.9616 94.1875C50.9616 94.1992 50.981 94.2108 50.981 94.2108C50.9761 94.205 50.6948 94.3915 50.9131 94.1293ZM51.0731 93.7388C51.0731 93.2901 51.272 93.7038 51.175 93.7388C51.175 93.7388 51.0731 94.24 51.0731 93.7388ZM51.2332 92.9579C51.2477 92.9404 51.2817 92.987 51.2817 93.0162C51.2817 93.0278 51.3011 93.0395 51.3011 93.0395C51.2962 93.0337 51.0149 93.2201 51.2332 92.9579ZM51.5581 91.7865C51.5581 91.3378 51.757 91.7516 51.66 91.7865C51.66 91.7865 51.5581 92.2877 51.5581 91.7865ZM51.7182 90.8133C51.7327 90.7959 51.7667 90.8425 51.7667 90.8716C51.7667 90.8833 51.7861 90.8949 51.7861 90.8949C51.7812 90.8891 51.4999 91.0756 51.7182 90.8133ZM51.8588 89.8459C52.0383 90.0907 52.0237 89.572 52.0043 90.4112L51.8588 89.8459ZM52.0868 89.6303C52.048 89.2107 52.2517 85.1664 52.3293 84.9857C52.4408 86.2153 52.5524 88.6862 52.0868 89.6303ZM38.7589 102.504L38.2739 102.696C38.172 103.29 37.7937 102.702 37.7889 102.696C36.9595 102.696 36.6055 102.976 35.8392 103.081C35.165 103.174 34.2338 103.209 33.6082 103.325C32.5266 103.523 30.1549 103.558 29.3595 102.894C27.8221 102.731 25.3777 100.796 24.5289 100.784C24.6744 101.828 25.4407 102.772 25.9451 103.622C23.3795 103.96 21.1727 100.4 19.3588 98.8205L19.6158 99.7354C18.8544 99.5956 18.9077 98.9021 18.3451 98.4184L18.0832 98.6224L17.4333 97.824C17.6079 99.8403 21.1678 103.646 22.5307 104.881C24.3931 106.571 28.3992 108.553 30.6593 108.553C31.0377 107.958 31.091 108.541 31.6488 108.727C31.7118 108.751 31.964 108.78 32.0756 108.803C34.2581 109.275 36.169 108.553 37.7889 108.553C36.9013 109.293 35.4172 109.229 34.2387 109.38C35.4657 110.068 37.3087 108.972 38.5988 108.943C36.6103 110.604 30.4896 109.881 27.4777 108.675C26.8084 108.407 24.7908 107.3 24.3543 107.241L24.9897 107.97C22.3658 107.206 18.801 102.958 17.2587 100.511C16.3372 99.0478 15.2896 97.0081 14.6882 95.2248C14.0868 93.4358 13.1653 90.487 13.1653 88.5347L12.6803 88.4823C12.8937 89.5662 12.9325 90.8774 13.2962 92.6199C13.5484 93.8262 13.8589 95.3472 14.2857 96.4253C13.7231 96.2563 13.2817 94.5605 13.0537 93.8845C12.8791 93.36 12.7724 92.9288 12.6172 92.4567C12.399 91.7807 12.3165 91.4194 11.8558 91.198C11.3708 92.2528 11.783 93.7563 12.0498 94.7004C14.1741 102.206 19.0581 109.036 25.2516 111.554C27.953 112.649 29.054 112.842 31.9592 112.842C35.9895 112.842 41.0336 111.513 44.3704 109.065C49.1525 105.551 52.2953 98.2844 53.2023 91.6292C53.5854 88.8203 53.5854 85.8249 53.2023 83.0101C51.8734 73.2663 46.291 66.2032 38.5843 63.1845C36.8286 62.4968 33.8216 61.6985 32.0028 61.8267C31.5615 61.1215 31.2171 60.0318 30.64 59.1052C29.4565 57.2112 26.4592 53.6214 24.6744 53.4232C24.9751 53.9302 26.1537 54.6062 26.6581 55.1307C27.9142 56.4361 31.2123 60.2998 31.4499 61.7684C30.2907 61.8791 28.5059 61.611 27.6038 62.1414C28.8988 62.3104 30.1161 61.8383 31.6003 62.0481C32.1047 62.5843 31.8864 62.5959 32.2502 62.9572L32.1095 62.0481C32.6188 62.1297 33.0698 62.1472 33.5548 62.2346C34.0544 62.3278 34.4521 62.5493 35.0195 62.6192C34.9274 63.2778 34.714 63.0213 36.5133 63.8314C35.6355 63.9946 33.647 63.4001 32.6188 63.3535C32.1338 63.3302 29.3983 63.4293 29.2577 64.4841C30.1937 65.2941 34.9807 64.7521 36.8189 65.8477C36.0768 65.9468 35.4706 65.7428 34.7237 65.7079C33.9719 65.6729 33.516 65.4806 32.6139 65.5039C31.8816 65.5214 29.2965 65.8536 28.9085 66.4363C30.3926 66.6345 31.091 66.3256 33.6082 66.6636C35.1796 66.8734 36.0865 66.6927 37.6434 67.6543C38.366 68.103 38.5746 67.9165 39.1081 68.2312C39.5106 68.4702 41.3585 69.7872 41.6107 70.0903C44.4625 73.5286 45.8933 74.7524 47.4598 79.6126C47.7023 80.3702 48.0564 80.7432 48.1776 81.2851L48.3765 85.4111C48.2019 86.769 48.3571 88.29 48.0855 89.7469C47.7314 91.6409 46.8148 94.712 45.6896 96.2155C45.7187 96.8041 45.675 96.0524 45.8787 96.8333C44.9572 97.2762 43.6526 99.1876 42.7117 100.038C41.989 100.691 41.8484 101.14 41.0287 101.519C40.4128 101.798 39.3749 102.457 38.7783 102.515L38.7589 102.504Z" fill="#40586F"/>
<path fill-rule="evenodd" clip-rule="evenodd" d="M14.6155 87.8354C14.7707 87.6489 15.1247 88.0802 14.8046 87.9403C14.7998 87.9403 14.3972 88.0976 14.6155 87.8354ZM13.6406 87.6431L14.1159 87.6722C13.5824 88.0219 13.8298 87.7888 13.6406 87.6431ZM13.6406 87.6431L13.1653 87.6139C13.6988 87.2643 13.4514 87.4974 13.6406 87.6431ZM12.8306 87.2526C12.8452 87.2351 12.8791 87.2818 12.8791 87.3109C12.8791 87.3226 12.8985 87.3342 12.8985 87.3342C12.8937 87.3284 12.6124 87.5149 12.8306 87.2526ZM9.10582 84.9158L9.25618 84.9624L9.16403 85.1081L9.11068 84.9158H9.10582ZM9.10582 84.9158L8.95547 84.8633L9.04763 84.7176L9.10098 84.9099L9.10582 84.9158ZM8.45592 84.333L8.60627 84.3796L8.51412 84.5253L8.46077 84.333H8.45592ZM8.45592 84.333L8.29587 84.1407L8.45592 84.333ZM8.29587 84.1407L8.14552 84.0882L8.23767 83.9425L8.29102 84.1348L8.29587 84.1407ZM5.05605 79.4669L5.2064 79.5135L5.11425 79.6592L5.0609 79.4669H5.05605ZM5.05605 79.4669L4.9057 79.4145L4.99785 79.2688L5.0512 79.4611L5.05605 79.4669ZM4.7311 78.8841L4.88145 78.9308L4.7893 79.0765L4.73595 78.8841H4.7311ZM4.7311 78.8841L4.56135 78.5345L4.7311 78.8841ZM4.40615 78.1032C4.4207 78.0858 4.45465 78.1324 4.45465 78.1615C4.45465 78.1732 4.47405 78.1848 4.47405 78.1848C4.4692 78.179 4.1879 78.3655 4.40615 78.1032ZM4.2461 77.7128C4.26065 77.6953 4.2946 77.7419 4.2946 77.7711C4.2946 77.7827 4.314 77.7944 4.314 77.7944C4.30915 77.7886 4.02785 77.975 4.2461 77.7128ZM4.08605 77.3223C4.08605 76.8736 4.2849 77.2874 4.1879 77.3223C4.1879 77.3223 4.08605 77.8293 4.08605 77.3223ZM3.92599 76.7396C3.94054 76.7221 3.97449 76.7687 3.97449 76.7979C3.97449 76.8095 3.99389 76.8212 3.99389 76.8212C3.98904 76.8153 3.70774 77.0018 3.92599 76.7396ZM31.4693 76.3491L31.4257 76.5298L31.3044 76.4191L31.4645 76.355L31.4693 76.3491ZM30.1743 76.1568L30.0967 76.5473L30.1743 76.1568ZM3.76595 76.1568C3.7805 76.1393 3.81445 76.186 3.81445 76.2151C3.81445 76.2267 3.83385 76.2384 3.83385 76.2384C3.829 76.2326 3.5477 76.4191 3.76595 76.1568ZM30.3392 75.7664L30.1792 76.1568L30.3392 75.7664ZM6.52076 72.4563L6.49651 73.0274C6.20551 72.3863 6.39951 72.6835 6.52076 72.4563ZM2.42734 68.9655L2.46614 72.0483C2.18969 71.4306 2.17999 69.5658 2.42734 68.9655ZM6.19581 71.6754C6.21036 71.6579 6.24431 71.7045 6.24431 71.7336C6.24431 71.7453 6.26371 71.7569 6.26371 71.7569C6.25886 71.7511 5.97756 71.9376 6.19581 71.6754ZM1.17118 66.0284C1.17118 65.5796 1.37003 65.9934 1.27303 66.0284C1.27303 66.0284 1.17118 66.5296 1.17118 66.0284ZM1.33123 65.2475C1.34578 65.23 1.37973 65.2766 1.37973 65.3058C1.37973 65.3174 1.39913 65.3291 1.39913 65.3291C1.39428 65.3232 1.11298 65.5097 1.33123 65.2475ZM7.65082 64.4666L7.60717 64.6472L7.48592 64.5365L7.64597 64.4724L7.65082 64.4666ZM4.896 59.9851L4.85235 60.1658L4.7311 60.055L4.89115 59.9909L4.896 59.9851ZM4.896 59.9851L4.9348 59.8045L5.05605 59.9152L4.896 59.9793V59.9851ZM3.60104 59.7928C3.61559 59.7753 3.64954 59.8219 3.64954 59.8511C3.64954 59.8627 3.66894 59.8744 3.66894 59.8744C3.66409 59.8686 3.38279 60.055 3.60104 59.7928ZM4.08605 59.21L4.0424 59.3907L3.92115 59.28L4.0812 59.2159L4.08605 59.21ZM4.2461 59.0177L4.08605 59.21L4.2461 59.0177ZM4.40615 58.6273L4.2461 59.0177L4.40615 58.6273ZM4.5662 58.435L4.40615 58.6273L4.5662 58.435ZM4.72625 58.2427L4.5662 58.435L4.72625 58.2427ZM4.72625 58.2427C4.8572 57.6715 4.74565 57.8347 5.21125 57.4618C5.0803 58.0329 5.19185 57.8697 4.72625 58.2427ZM5.5362 57.0713L5.52165 57.4268L5.2161 57.4618L5.54105 57.0713H5.5362ZM5.86116 56.6808L5.8466 57.0363L5.54105 57.0713L5.86601 56.6808H5.86116ZM5.86116 56.6808C6.17156 56.1156 6.62261 55.492 7.15611 55.3172C6.84571 55.8825 6.39466 56.506 5.86116 56.6808ZM7.15611 55.3172C7.47622 54.7402 7.90302 54.3265 8.45107 54.1458C8.19402 54.6179 7.58292 55.1773 7.15611 55.3172ZM8.45107 54.1458L8.48987 53.9652L8.61112 54.0759L8.45107 54.14V54.1458ZM12.6657 88.424L13.1507 88.4764C13.9219 89.304 18.5925 89.5138 19.6304 88.9193H19.7904C22.2009 89.2632 27.5893 85.312 29.4468 82.3108C31.7846 78.5403 33.7246 74.1521 33.7246 69.1403C33.5257 69.5133 33.3075 71.6695 33.1717 72.3747C32.9098 73.7267 32.8516 74.1463 32.3229 75.4458L31.8913 75.4633L31.4596 76.355C31.5275 75.4109 31.9737 74.3561 32.1483 73.2896C32.3472 72.0833 32.5945 71.0868 32.1095 69.9271C31.2171 70.6905 31.154 74.6533 30.3295 75.7722C30.3586 74.0297 31.5275 71.2733 30.8728 69.5716C30.4847 70.201 30.4071 71.6171 30.2374 72.5437C30.0628 73.4994 29.8154 74.4726 29.5438 75.4109C28.5932 78.6744 25.9985 81.5299 23.4231 83.0509C21.066 84.4437 19.5043 84.199 18.6798 84.9449C17.0211 84.4029 16.5943 84.6535 16.2645 84.6127C15.9492 84.5719 16.0608 84.4612 15.5855 84.4029C14.6979 84.4321 15.2217 84.4029 14.9501 84.1523C14.6009 84.1523 14.8968 84.2048 14.7755 83.96C14.3245 84.1698 13.3108 83.657 12.8306 83.3539L12.2923 82.9868C11.3223 82.2991 10.4784 81.7921 9.77998 80.8014C9.40653 80.2711 9.46473 80.3352 8.97002 80.4226C8.74207 78.8783 6.40436 76.1859 6.52561 73.6509C6.55956 72.94 6.92816 73.1264 6.51106 72.4679C6.51106 70.1077 6.55956 67.0657 7.32101 65.0668L7.80602 64.4841H7.64597L7.80602 64.0936L7.96607 63.7031L8.29102 63.1204C8.47532 62.3103 9.15918 61.2497 9.75088 60.7835L9.65388 60.3581C8.58202 60.4455 8.48502 60.9816 7.67507 61.1448C7.96122 59.0469 10.3232 57.3335 11.6715 56.0456L11.0555 55.8358L12.3505 54.9442L12.0255 54.851L12.3505 54.7461L12.6706 54.2216C10.2795 54.5363 7.27252 57.7881 5.73506 60.2299C2.93174 64.688 2.88324 70.5798 2.67469 71.0926L2.63104 68.7732C2.09268 68.2837 3.24214 64.5598 3.50404 63.7847C3.8775 62.6717 5.25975 60.1658 5.38585 59.618L5.0803 59.5422C7.01546 57.1121 8.00002 55.4046 11.1089 53.6388C12.4426 52.8871 13.7861 52.4442 15.2072 52.1353C17.9814 51.535 18.1948 52.0246 20.45 51.7798C19.4412 51.098 16.8125 51.1621 15.5612 51.3894C15.1878 51.4593 14.1111 51.6108 13.8201 51.5875C14.63 51.0397 17.0793 50.9523 17.574 50.2646C16.6622 49 12.6415 50.4278 11.492 50.9814C6.69536 53.3183 3.52829 56.5526 1.54463 62.3978C-0.264427 67.7417 0.351525 77.3049 3.23729 81.0928C4.7311 83.0509 5.37615 84.0241 7.29677 85.5626C8.67417 86.664 11.104 88.3074 12.6754 88.4356L12.6657 88.424Z" fill="#219AB5"/>
<path fill-rule="evenodd" clip-rule="evenodd" d="M12.2923 82.9693L12.8306 83.3364C12.8549 82.0718 13.6988 79.1289 14.1014 77.8759C14.9889 75.1486 16.958 71.4597 18.6992 69.3793C19.2521 68.7149 21.4443 66.3256 21.7401 65.8244C19.8438 66.0284 16.8077 70.7138 15.7116 72.7942C14.9647 74.2162 14.1693 76.1335 13.8006 77.7011C13.5824 78.6335 12.7627 82.5905 12.2923 82.9635V82.9693ZM14.9501 84.1348C15.2217 84.3912 14.6979 84.4146 15.5855 84.3854C15.8377 82.946 16.0365 81.4599 16.4148 80.0613C16.7204 78.9191 17.4964 77.3165 17.6952 76.3375C16.4876 77.3748 15.4254 82.0194 15.4254 83.7386C15.2605 84.4087 15.5758 83.9367 14.955 84.129L14.9501 84.1348ZM16.5603 97.5792C16.1723 95.6502 15.3527 94.9276 14.63 90.3529C14.567 89.9566 14.6446 90.1315 14.5233 89.706C14.3002 88.9077 14.47 89.5079 14.2905 89.2049C13.9753 89.8576 14.7367 93.0686 14.9356 93.6922C15.212 94.5605 15.9492 97.0605 16.5603 97.585V97.5792ZM26.2652 57.7881C25.0527 55.7717 21.2454 53.7787 19.1793 53.9768L20.159 54.2915C23.9566 55.3754 25.6978 57.6948 26.2652 57.7939V57.7881ZM13.3205 53.3533L17.3412 52.8171C17.6031 52.8404 17.7195 53.225 18.5052 52.5723C16.958 52.5723 14.436 52.4208 13.3205 53.3533Z" fill="#40586F"/>
<path fill-rule="evenodd" clip-rule="evenodd" d="M24.01 52.9628C23.4425 52.0013 21.5946 51.3253 20.6198 51.4535C20.7265 51.5525 23.6705 52.8638 24.01 52.9628Z" fill="#219AB5"/>
<path fill-rule="evenodd" clip-rule="evenodd" d="M26.1197 100.889L23.7093 98.5991C23.8887 99.8695 25.0673 100.58 26.1197 100.889ZM14.7755 83.9426C14.9356 83.6454 15.1102 82.1243 15.2266 81.5649C15.3915 80.7782 15.6873 80.0555 15.7455 79.2688C15.0956 80.1488 14.7755 82.6255 14.7755 83.9426Z" fill="#40586F"/>
<path fill-rule="evenodd" clip-rule="evenodd" d="M9.75572 60.7543L9.27072 61.9257L11.0555 59.9792C10.2068 60.0667 10.3668 60.2765 9.76057 60.7602L9.75572 60.7543Z" fill="#219AB5"/>
<path fill-rule="evenodd" clip-rule="evenodd" d="M20.7701 93.8786C20.8186 94.5547 20.9302 94.9684 21.2551 95.4696C21.517 94.9101 21.2212 94.2633 20.7701 93.8786ZM19.8001 88.9135H19.6401C19.4315 89.6128 19.3539 89.9508 19.9505 90.1257L19.8001 88.9135ZM19.8389 82.3632C20.1348 81.8854 20.2512 81.1919 20.256 80.6616C19.9262 81.1336 19.7807 81.5998 19.8389 82.3632ZM13.4854 58.0678C13.5872 58.3359 13.2574 58.6098 14.0141 58.3242C14.2129 58.2485 14.4894 57.9921 14.6009 57.893L13.4854 58.0737V58.0678ZM37.784 102.643H38.269L38.754 102.451V102.259C38.1187 102.276 38.2205 102.177 37.784 102.649V102.643ZM29.3595 102.836L30.1549 102.818L29.0346 102.451L29.3595 102.836ZM22.715 59.1984C22.3658 58.8254 22.3512 58.703 21.9196 58.9536L22.715 59.1984ZM29.0346 102.451L28.0646 102.061C28.5011 102.527 28.4041 102.434 29.0346 102.451ZM16.8804 57.6424L17.8456 57.5841L16.8804 57.4384V57.6424ZM27.2498 62.8989C26.5756 62.8989 26.9345 62.829 26.5999 63.0913C27.274 63.0854 26.9151 63.1612 27.2498 62.8989ZM21.905 53.9419C21.5704 53.6796 21.9293 53.7496 21.2551 53.7496C21.5898 54.0118 21.2309 53.9419 21.905 53.9419ZM15.7504 79.2629L16.0753 78.4879L15.7795 78.7093L15.7504 79.2629ZM21.2551 53.7437C21.0902 53.6155 21.3182 53.3649 20.7847 53.6971L21.2551 53.7437ZM12.3456 53.7437C12.5008 53.9302 12.8549 53.499 12.5348 53.6388C12.5299 53.6388 12.1225 53.4815 12.3456 53.7437ZM13.3205 53.3533L12.8452 53.3824C13.3787 53.7321 13.1313 53.499 13.3205 53.3533ZM7.81087 64.4607L7.97092 64.0703H7.81087V64.4607ZM7.97092 64.0703L8.13582 63.6798H7.97092V64.0703ZM8.29587 63.4875L8.45592 63.0971H8.29587V63.4875ZM12.3456 54.7169V54.9151L12.6706 54.8218L12.3456 54.7169ZM33.128 68.1438L33.2687 67.3862C33.225 67.427 33.1862 67.4328 33.1814 67.5028L33.128 68.1438ZM16.8804 98.3601L16.9241 98.5349L17.0453 98.4242L16.8804 98.3601ZM8.94577 62.3162L8.79542 62.3686L8.88757 62.5085L8.94577 62.3162ZM17.6952 76.3433L17.8407 76.2908L17.7486 76.151L17.6952 76.3433ZM20.7701 93.8786L20.7313 93.698L20.6101 93.8087L20.7701 93.8786ZM26.2798 63.2894L26.1343 63.3418L26.2264 63.4817L26.2798 63.2894ZM16.2354 77.8993L16.3809 77.8526L16.2887 77.707L16.2354 77.8993ZM27.0897 101.478L27.1334 101.653L27.2498 101.542L27.0897 101.478ZM23.04 59.3965L23.0836 59.5714L23.2 59.4606L23.04 59.3965ZM8.62082 62.8989L8.76632 62.8523L8.67417 62.7066L8.62082 62.8989ZM38.754 102.253L38.9044 102.206L38.8122 102.061L38.754 102.253ZM16.8804 98.3601L16.8416 98.1794L16.7204 98.2902L16.8804 98.3601ZM25.4698 56.2787L25.5135 56.4536L25.6299 56.3428L25.4698 56.2787Z" fill="#40586F"/>
<path fill-rule="evenodd" clip-rule="evenodd" d="M11.0507 59.9792L11.201 59.9268L11.104 59.7869L11.0507 59.9792ZM5.381 59.5888L5.5265 59.5363L5.43435 59.3965L5.381 59.5888Z" fill="#219AB5"/>
<path fill-rule="evenodd" clip-rule="evenodd" d="M16.3954 77.5146C16.41 77.5321 16.4439 77.433 16.4439 77.4563C16.4439 77.468 16.4633 77.433 16.4633 77.433C16.4585 77.4388 16.1772 77.2524 16.3954 77.5146ZM20.2851 80.4343C20.2997 80.4517 20.3336 80.3527 20.3336 80.376C20.3336 80.3876 20.353 80.3527 20.353 80.3527C20.3482 80.3585 20.0669 80.172 20.2851 80.4343ZM2.62618 67.9631C2.64073 67.9806 2.67468 67.8815 2.67468 67.9048C2.67468 67.9165 2.69408 67.8815 2.69408 67.8815C2.68923 67.8873 2.40793 67.7009 2.62618 67.9631ZM33.7343 69.1345L33.904 68.7848L33.7343 69.1345ZM16.0753 78.4878L16.2354 77.8992L16.0753 78.4878ZM8.29586 63.4875L8.13581 63.6798L8.29586 63.4875ZM26.6047 63.097L26.2798 63.2893L26.6047 63.097ZM8.62081 62.8989L8.45591 63.097L8.62081 62.8989ZM9.10581 62.1238L8.94576 62.3161L9.10581 62.1238ZM9.26587 61.9257L9.10581 62.1238L9.26587 61.9257ZM27.2498 62.8989L27.5747 62.8115L27.2498 62.8989ZM24.3349 53.1609L24.0099 52.9628L24.3349 53.1609ZM23.0399 59.3965L22.715 59.1983L23.0399 59.3965ZM16.5603 97.5792L16.6331 97.9696L16.5603 97.5792ZM18.1802 98.1619L18.1026 97.7715L18.1802 98.1619ZM24.6599 53.3532L24.3349 53.1609L24.6599 53.3532ZM18.3403 98.3601L18.1802 98.1619L18.3403 98.3601ZM22.23 54.1341L21.905 53.9418L22.23 54.1341ZM23.3649 54.7169L23.0399 54.5246L23.3649 54.7169ZM26.4447 101.087L26.1197 100.889L26.4447 101.087ZM22.715 54.3264L22.23 54.1341L22.715 54.3264ZM26.7648 101.28L26.4447 101.087L26.7648 101.28ZM27.0897 101.478L26.7648 101.28L27.0897 101.478ZM23.0399 54.5246L22.715 54.3264L23.0399 54.5246ZM27.7396 101.862L27.4438 101.659L27.7396 101.862ZM25.4698 56.2787L24.9848 55.8882L25.4698 56.2787ZM28.0646 102.061L27.7396 101.862L28.0646 102.061ZM24.9848 55.8882L24.8199 55.6901L24.9848 55.8882Z" fill="#40586F"/>
<path fill-rule="evenodd" clip-rule="evenodd" d="M2.62619 68.7441L2.79594 68.3944L2.62619 68.7441Z" fill="#219AB5"/>
<path fill-rule="evenodd" clip-rule="evenodd" d="M131.358 5.97321L131.038 5.7809L131.358 5.97321ZM131.038 5.7809L130.548 5.39045L131.038 5.7809ZM130.548 5.39045L130.228 5.19814L130.548 5.39045ZM130.228 5.19814L129.903 5L130.228 5.19814ZM137.193 58.7716L137.489 58.9756L137.193 58.7716ZM79.5889 71.8313C77.9981 70.0306 75.6167 69.1448 73.5263 69.1448C69.7627 69.1448 65.907 71.4059 65.907 76.4993C65.907 81.1672 68.6424 82.6474 71.1741 83.6032C73.7931 84.5939 75.9708 85.334 75.9708 87.9506C75.9708 90.6371 73.9435 91.6628 72.2071 91.6628C70.563 91.6628 68.6763 90.6022 67.6481 88.9063L65 91.8784C66.649 94.2095 69.4426 95.4449 72.1489 95.4449C76.2375 95.4449 79.7392 92.8283 79.7392 87.4552C79.7392 82.5425 76.3297 81.1264 73.6524 80.1415C71.3002 79.2557 69.6803 78.5856 69.6803 76.2895C69.6803 73.8535 71.6494 72.8628 73.3566 72.8628C74.8262 72.8628 76.3879 73.7836 77.1833 75.0191L79.5937 71.8372L79.5889 71.8313ZM187.987 99.9613C189.607 102.013 192.076 103.283 194.607 103.283C200.694 103.283 202.076 98.2655 202.076 94.6582V78.2592H200.078V81.1206H200.02C198.929 78.9993 196.814 77.8338 194.811 77.8338C190.519 77.8338 187.691 81.6859 187.691 86.383C187.691 91.2257 190.514 94.7922 194.811 94.7922C196.809 94.7922 198.958 93.5917 200.02 91.5404H200.078V94.6524C200.078 98.2189 198.638 101.156 194.695 101.156C192.604 101.156 190.519 99.8156 189.427 98.114L187.987 99.9497V99.9613ZM189.811 86.3188C189.811 82.8572 191.692 79.8502 195.02 79.8502C198.109 79.8502 200.316 82.8514 200.316 86.3188C200.316 90.1359 198.109 92.7526 195.02 92.7526C191.697 92.7526 189.811 89.7863 189.811 86.3188ZM178.636 81.9015V94.7981H180.634V86.3188C180.634 81.9015 182.545 80.0658 184.665 80.0658C185.193 80.0658 185.843 80.1707 186.076 80.2756L186.343 78.0145C185.931 77.8746 185.518 77.8396 185.019 77.8396C183.079 77.8396 181.372 79.18 180.605 81.0915H180.547C180.547 80.3863 180.489 79.145 180.431 78.265H178.52C178.607 79.3956 178.636 81.0215 178.636 81.9073V81.9015ZM174.344 86.5286C174.344 81.546 171.284 77.8338 166.991 77.8338C162.728 77.8338 159.668 81.546 159.668 86.5286C159.668 91.5113 162.728 95.2235 166.991 95.2235C171.284 95.2235 174.344 91.5113 174.344 86.5286ZM172.224 86.5286C172.224 90.2408 170.197 93.1721 166.986 93.1721C163.81 93.1721 161.782 90.2408 161.782 86.5286C161.782 82.8164 163.81 79.8502 166.986 79.8502C170.192 79.8502 172.224 82.8223 172.224 86.5286ZM155.783 93.1022C155.783 92.1115 155.138 91.1966 154.197 91.1966C153.256 91.1966 152.611 92.1173 152.611 93.1022C152.611 94.0929 153.256 95.0078 154.197 95.0078C155.138 95.0078 155.783 94.0871 155.783 93.1022ZM142.305 77.3385C140.185 77.3385 138.599 78.504 137.658 80.5553C136.863 78.6497 135.422 77.3385 133.245 77.3385C130.98 77.3385 129.481 78.8944 128.86 80.5553H128.802V77.8338H125.446V94.7981H128.977V85.468C128.977 83.2069 129.947 80.8758 132.066 80.8758C133.861 80.8758 134.685 82.4668 134.685 84.5531V94.8039H138.216V85.5438C138.216 83.3526 139.128 80.8758 141.335 80.8758C143.6 80.8758 143.983 83.3875 143.983 85.3981V94.7981H147.514V84.1976C147.514 80.736 145.986 77.3385 142.309 77.3385H142.305ZM121.217 77.8338H117.686V87.1639C117.686 89.425 116.629 91.756 114.393 91.756C112.128 91.756 111.745 89.2443 111.745 87.2338V77.8338H108.214V88.4343C108.214 91.8959 109.742 95.2934 113.418 95.2934C115.508 95.2934 117.181 93.7724 117.802 92.0765H117.86V94.7981H121.212V77.8338H121.217ZM97.6261 94.7981H101.157V85.7128C101.157 84.4773 101.773 81.1556 104.95 81.1556C105.275 81.1556 105.566 81.1905 106.036 81.3304V77.4434C105.803 77.3734 105.449 77.3385 105.182 77.3385C103.33 77.3385 101.831 78.7196 101.065 80.6602H101.007V77.8338H97.6261V94.7981ZM95.3321 79.99C94.2117 78.3292 92.068 77.3385 90.0067 77.3385C85.86 77.3385 82.4456 80.8001 82.4456 86.3188C82.4456 91.9717 85.9182 95.2992 90.094 95.2992C92.1844 95.2992 94.1244 94.4484 95.303 92.9332L93.0962 90.2467C92.4221 91.2374 91.2144 91.7677 90.1231 91.7677C87.4459 91.7677 86.1219 88.9762 86.1219 86.3247C86.1219 83.6731 87.4168 80.8817 90.0067 80.8817C91.1514 80.8817 92.359 81.5868 92.9168 82.5425L95.3321 79.9959V79.99Z" fill="white"/>
</svg>
